<svg xmlns="http://www.w3.org/2000/svg" width="30" height="30" viewBox="0 0 30 30" fill="none">
  <path d="M27.1875 24.375H2.8125C2.56386 24.375 2.3254 24.4738 2.14959 24.6496C1.97377 24.8254 1.875 25.0639 1.875 25.3125L1.875 27.1875C1.875 27.4361 1.97377 27.6746 2.14959 27.8504C2.3254 28.0262 2.56386 28.125 2.8125 28.125H27.1875C27.4361 28.125 27.6746 28.0262 27.8504 27.8504C28.0262 27.6746 28.125 27.4361 28.125 27.1875V25.3125C28.125 25.0639 28.0262 24.8254 27.8504 24.6496C27.6746 24.4738 27.4361 24.375 27.1875 24.375ZM27.1875 16.875H2.8125C2.56386 16.875 2.3254 16.9738 2.14959 17.1496C1.97377 17.3254 1.875 17.5639 1.875 17.8125L1.875 19.6875C1.875 19.9361 1.97377 20.1746 2.14959 20.3504C2.3254 20.5262 2.56386 20.625 2.8125 20.625H27.1875C27.4361 20.625 27.6746 20.5262 27.8504 20.3504C28.0262 20.1746 28.125 19.9361 28.125 19.6875V17.8125C28.125 17.5639 28.0262 17.3254 27.8504 17.1496C27.6746 16.9738 27.4361 16.875 27.1875 16.875ZM27.1875 9.375H2.8125C2.56386 9.375 2.3254 9.47377 2.14959 9.64959C1.97377 9.8254 1.875 10.0639 1.875 10.3125L1.875 12.1875C1.875 12.4361 1.97377 12.6746 2.14959 12.8504C2.3254 13.0262 2.56386 13.125 2.8125 13.125H27.1875C27.4361 13.125 27.6746 13.0262 27.8504 12.8504C28.0262 12.6746 28.125 12.4361 28.125 12.1875V10.3125C28.125 10.0639 28.0262 9.8254 27.8504 9.64959C27.6746 9.47377 27.4361 9.375 27.1875 9.375ZM27.1875 1.875H2.8125C2.56386 1.875 2.3254 1.97377 2.14959 2.14959C1.97377 2.3254 1.875 2.56386 1.875 2.8125L1.875 4.6875C1.875 4.93614 1.97377 5.1746 2.14959 5.35041C2.3254 5.52623 2.56386 5.625 2.8125 5.625H27.1875C27.4361 5.625 27.6746 5.52623 27.8504 5.35041C28.0262 5.1746 28.125 4.93614 28.125 4.6875V2.8125C28.125 2.56386 28.0262 2.3254 27.8504 2.14959C27.6746 1.97377 27.4361 1.875 27.1875 1.875Z" fill="white"/>
</svg>