<svg xmlns="http://www.w3.org/2000/svg" width="32" height="32" viewBox="0 0 32 32" fill="none">
  <path d="M14.6667 23.3333L20 18L14.6667 12.6667L12.8 14.5333L16.2667 18L12.8 21.4667L14.6667 23.3333ZM5.33336 28C4.60002 28 3.97202 27.7387 3.44936 27.216C2.92669 26.6933 2.6658 26.0658 2.66669 25.3333V10.6667C2.66669 9.93334 2.92802 9.30534 3.45069 8.78267C3.97336 8.26001 4.60091 7.99912 5.33336 8.00001H10.6667V5.33334C10.6667 4.60001 10.928 3.97201 11.4507 3.44934C11.9734 2.92667 12.6009 2.66579 13.3334 2.66667H18.6667C19.4 2.66667 20.028 2.92801 20.5507 3.45067C21.0734 3.97334 21.3342 4.6009 21.3334 5.33334V8.00001H26.6667C27.4 8.00001 28.028 8.26134 28.5507 8.78401C29.0734 9.30667 29.3342 9.93423 29.3334 10.6667V25.3333C29.3334 26.0667 29.072 26.6947 28.5494 27.2173C28.0267 27.74 27.3991 28.0009 26.6667 28H5.33336ZM5.33336 25.3333H26.6667V10.6667H5.33336V25.3333ZM13.3334 8.00001H18.6667V5.33334H13.3334V8.00001Z" fill="#FF9634"/>
</svg>