<svg xmlns="http://www.w3.org/2000/svg" width="32" height="32" viewBox="0 0 32 32" fill="none">
  <path d="M12 22C11.0667 22 10.2778 21.6778 9.63334 21.0333C8.98889 20.3889 8.66667 19.6 8.66667 18.6667C8.66667 17.7333 8.98889 16.9444 9.63334 16.3C10.2778 15.6555 11.0667 15.3333 12 15.3333C12.9333 15.3333 13.7222 15.6555 14.3667 16.3C15.0111 16.9444 15.3333 17.7333 15.3333 18.6667C15.3333 19.6 15.0111 20.3889 14.3667 21.0333C13.7222 21.6778 12.9333 22 12 22ZM6.66667 29.3333C5.93334 29.3333 5.30534 29.072 4.78267 28.5493C4.26 28.0267 3.99911 27.3991 4 26.6667V7.99999C4 7.26666 4.26134 6.63866 4.784 6.11599C5.30667 5.59332 5.93422 5.33243 6.66667 5.33332H8V2.66666H10.6667V5.33332H21.3333V2.66666H24V5.33332H25.3333C26.0667 5.33332 26.6947 5.59466 27.2173 6.11732C27.74 6.63999 28.0009 7.26755 28 7.99999V26.6667C28 27.4 27.7387 28.028 27.216 28.5507C26.6933 29.0733 26.0658 29.3342 25.3333 29.3333H6.66667ZM6.66667 26.6667H25.3333V13.3333H6.66667V26.6667Z" fill="#FF9634"/>
</svg>